{"title":"Season of the Witch 2011 TS XVID SAFCuk009+Fabreezy","uid":6106722,"size":930064365,"categoryP":"video","categoryS":"movies","magnet":"?xt=urn:btih:5c2c464f45b52d6b11c9bcc578c1b9ffd2e69c00&amp;dn=Season+of+the+Witch+2011+TS+XVID+SAFCuk009%2BFabreezy&amp;tr=udp%3A%2F%2Ftracker.openbittorrent.com%3A80&amp;tr=udp%3A%2F%2Fopen.demonii.com%3A1337&amp;tr=udp%3A%2F%2Ftracker.coppersurfer.tk%3A6969&amp;tr=udp%3A%2F%2Fexodus.desync.com%3A6969","seeders":0,"leechers":0,"uploader":"SAFCukO09","files":3,"time":1295191990,"description":"[img]http://leetleech.org/images/48874973695367351744.png[/img]\n\nFormat                           : AVI\nFormat/Info                      : Audio Video Interleave\nFile size                        : 878 MiB\nDuration                         : 1h 24mn\nOverall bit rate                 : 1 451 Kbps\nWriting application              : VirtualDubMod 1.5.10.2 (build 2540/release)\nWriting library                  : VirtualDub build 32839/release\n\nVideo\nID                               : 0\nFormat                           : MPEG-4 Visual\nFormat profile                   : Advanced Simple@L5\nFormat settings, BVOP            : Yes\nFormat settings, QPel            : No\nFormat settings, GMC             : No warppoints\nFormat settings, Matrix          : Custom\nCodec ID                         : XVID\nCodec ID/Hint                    : XviD\nDuration                         : 1h 24mn\nBit rate                         : 1 185 Kbps\nWidth                            : 720 pixels\nHeight                           : 320 pixels\nDisplay aspect ratio             : 2.25:1\nFrame rate                       : 25.000 fps\nColor space                      : YUV\nChroma subsampling               : 4:2:0\nBit depth                        : 8 bits\nScan type                        : Progressive\nBits/(Pixel*Frame)               : 0.206\nStream size                      : 717 MiB (82%)\nWriting library                  : XviD 1.2.1 (UTC 2008-12-04)\n\nAudio\nID                               : 1\nFormat                           : MPEG Audio\nFormat version                   : Version 1\nFormat profile                   : Layer 3\nCodec ID                         : 55\nCodec ID/Hint                    : MP3\nDuration                         : 1h 24mn\nBit rate mode                    : Constant\nBit rate                         : 256 Kbps\nChannel(s)                       : 2 channels\nSampling rate                    : 44.1 KHz\nStream size                      : 155 MiB (18%)\nAlignment                        : Split accross interleaves\nInterleave, duration             : 40 ms (1.00 video frame)\nInterleave, preload duration     : 500 ms\n\n &lt;a href=&quot;\nhttp://www.imdb.com/title/tt0479997/&quot; rel=&quot;nofollow&quot; target=&quot;_NEW&quot;&gt;\nhttp://www.imdb.com/title/tt0479997/&lt;/a&gt;\n\n\nUsers: 5.7/10 (2,090 votes) 39 reviews | Critics: 34 reviews Metascore: 28/100 (based on 27 reviews from Metacritic.com)\n\n14th-century knights transport a suspected witch to a monastery, where monks deduce her powers could be the source of the Black Plague.\nDirector:\nDominic Sena\nWriter:\nBragi F. Schut\nStars:\nNicolas Cage, Ron Perlman and Claire Foy \n\n\n\n\n[img]http://leetleech.org/images/95521316153253938506.png[/img]\n\n\n\n[img]http://img15.imageshack.us/img15/7466/56688167.png[/img]\n\n[img]http://img695.imageshack.us/img695/5439/13751093.png[/img]\n\n[img]http://img560.imageshack.us/img560/5339/62351418.png[/img]\n\n\n\nVideo source    ELEKTRI4KA - Thanks\nAudio source   TOXiC-iNK     - Thanks\n\nAnother one to add to the plenty already out .!\n\nRan just a few filters .Increased saturation ,sharpened a touch and altered the contrast  not alot more .Left the audio untouched .Sample included.Enjoy [/center]\n\n\nGreetz to Imagine ,Flawl3ss ,Santi ,Vision ,Kingdom,BDK,iNK,TOXIC,LEGION,Classified,THC,WBZ,Rx ,Feel Free and to all who share\n\n\n[img]http://signatures.mylivesignature.com/54488/364/63C91F8D3F952BFA8B83650965539EC2.png[/img]","torrent":{"xt":"urn:btih:5c2c464f45b52d6b11c9bcc578c1b9ffd2e69c00","amp;dn":"Season+of+the+Witch+2011+TS+XVID+SAFCuk009%2BFabreezy","amp;tr":["udp%3A%2F%2Ftracker.openbittorrent.com%3A80","udp%3A%2F%2Fopen.demonii.com%3A1337","udp%3A%2F%2Ftracker.coppersurfer.tk%3A6969","udp%3A%2F%2Fexodus.desync.com%3A6969"],"infoHash":"5c2c464f45b52d6b11c9bcc578c1b9ffd2e69c00","infoHashBuffer":{"type":"Buffer","data":[92,44,70,79,69,181,45,107,17,201,188,197,120,193,185,255,210,230,156,0]},"announce":[],"urlList":[]}}